#!OML:ASF G:\JayActor3\Patient Classification 1\Patient 1\Session 5\male.ASF
:FULLY-SPECIFIED
:DEGREES
451
root -8.42497 17.3241 11.6679 -12.7442 61.3993 -4.81879
lowerback 8.95137 -1.81766 0.414424
upperback 2.51886 -2.35724 -0.804242
thorax -2.45475 -1.15543 -0.806659
lowerneck -0.481008 -1.6285 0.195755
upperneck 6.44701 -2.29796 2.64888
head 2.13113 -1.06033 0.755305
rclavicle -3.30355e-014 -3.97569e-016
rhumerus -31.8222 -10.0746 -86.2716
rradius 18.8275
rwrist 14.3781
rhand -17.924 -6.35207
rfingers 7.12502
rthumb 8.3437 -36.1673
lclavicle -3.30355e-014 -3.97569e-016
lhumerus -30.1351 19.1349 78.7136
lradius 11.7857
lwrist 6.21378
lhand -20.1702 15.0841
lfingers 7.12502
lthumb 6.17553 44.9741
rfemur -15.0572 11.2648 17.9543
rtibia 24.8684
rfoot 4.42401 -9.14255
rtoes 6.80062
lfemur -4.17638 5.14265 -21.5183
ltibia 34.8082
lfoot -6.63222 -0.907844
ltoes -14.046
452
root -8.32741 17.318 11.7756 -13.1655 61.6317 -5.35237
lowerback 8.92719 -1.84825 0.608421
upperback 2.51038 -2.37824 -0.709823
thorax -2.45437 -1.16664 -0.816264
lowerneck -0.47072 -1.67063 0.154836
upperneck 6.43885 -2.35325 2.65433
head 2.12812 -1.08886 0.762935
rclavicle 4.86401e-015 4.37326e-015
rhumerus -31.7284 -9.85225 -86.3758
rradius 18.9929
rwrist 14.1296
rhand -18.0797 -6.3682
rfingers 7.12502
rthumb 8.19337 -36.1893
lclavicle 4.86401e-015 4.37326e-015
lhumerus -30.2307 19.1663 78.7289
lradius 11.7878
lwrist 6.24698
lhand -20.1907 15.0485
lfingers 7.12502
lthumb 6.15575 44.9391
rfemur -14.7476 11.2084 18.3322
rtibia 24.9365
rfoot 3.98271 -8.83222
rtoes 7.04302
lfemur -4.59716 5.13973 -21.3959
ltibia 34.8949
lfoot -6.90408 -0.552479
ltoes -13.951
453
root -8.23193 17.3116 11.8805 -13.5655 61.8308 -5.87247
lowerback 8.89841 -1.8752 0.797956
upperback 2.49898 -2.39505 -0.618804
thorax -2.4544 -1.17577 -0.827433
lowerneck -0.460599 -1.70675 0.118538
upperneck 6.42862 -2.40055 2.65867
head 2.12429 -1.11335 0.769593
rclavicle -5.22679e-014 7.55382e-015
rhumerus -31.6331 -9.63481 -86.4781
rradius 19.1589
rwrist 13.8894
rhand -18.2354 -6.38366
rfingers 7.12502
rthumb 8.04316 -36.2106
lclavicle -5.22679e-014 7.55382e-015
lhumerus -30.3337 19.2275 78.7215
lradius 11.7786
lwrist 6.25282
lhand -20.2259 15.0058
lfingers 7.12502
lthumb 6.12174 44.8973
rfemur -14.4639 11.1142 18.7246
rtibia 25.0787
rfoot 3.48979 -8.49889
rtoes 7.24135
lfemur -4.98898 5.16713 -21.2872
ltibia 34.8796
lfoot -7.17046 -0.217926
ltoes -13.7914
454
root -8.13839 17.3046 11.9827 -13.9378 61.9958 -6.37276
lowerback 8.86306 -1.89647 0.984055
upperback 2.48765 -2.40495 -0.53389
thorax -2.45072 -1.18143 -0.843959
lowerneck -0.462756 -1.73869 0.0934811
upperneck 6.42048 -2.44261 2.66032
head 2.12306 -1.13494 0.773509
rclavicle -7.22582e-014 8.74653e-015
rhumerus -31.5307 -9.43811 -86.5768
rradius 19.3218
rwrist 13.6647
rhand -18.3903 -6.39327
rfingers 7.12502
rthumb 7.89363 -36.2259
lclavicle -7.22582e-014 8.74653e-015
lhumerus -30.4344 19.3156 78.6927
lradius 11.7557
lwrist 6.22472
lhand -20.2702 14.964
lfingers 7.12502
lthumb 6.07898 44.8568
rfemur -14.1988 10.9895 19.125
rtibia 25.271
rfoot 2.94866 -8.15037
rtoes 7.41291
lfemur -5.35155 5.22411 -21.1934
ltibia 34.7702
lfoot -7.43233 0.0945698
ltoes -13.5648
455
root -8.04674 17.297 12.082 -14.2753 62.1258 -6.84689
lowerback 8.8205 -1.91398 1.16283
upperback 2.47306 -2.41087 -0.453014
thorax -2.44621 -1.18512 -0.861156
lowerneck -0.466397 -1.76402 0.0735762
upperneck 6.41206 -2.47581 2.65875
head 2.12174 -1.15208 0.7757
rclavicle 2.48636e-014 2.14687e-014
rhumerus -31.4286 -9.24662 -86.6725
rradius 19.4837
rwrist 13.448
rhand -18.5429 -6.40174
rfingers 7.12502
rthumb 7.74633 -36.2398
lclavicle 2.48636e-014 2.14687e-014
lhumerus -30.5416 19.4386 78.6404
lradius 11.7202
lwrist 6.16001
lhand -20.3229 14.9147
lfingers 7.12502
lthumb 6.02807 44.8089
rfemur -13.948 10.8443 19.527
rtibia 25.4928
rfoot 2.36699 -7.79491
rtoes 7.567
lfemur -5.6838 5.31072 -21.1148
ltibia 34.5722
lfoot -7.68836 0.382744
ltoes -13.2687
456
root -7.95697 17.2889 12.1784 -14.5735 62.2222 -7.29182
lowerback 8.76877 -1.92835 1.33421
upperback 2.45479 -2.41375 -0.37623
thorax -2.44024 -1.18734 -0.878997
lowerneck -0.471059 -1.78212 0.0574912
upperneck 6.40389 -2.49932 2.65478
head 2.12044 -1.16435 0.776667
rclavicle 7.81162e-015 1.19271e-015
rhumerus -31.3276 -9.06363 -86.7637
rradius 19.643
rwrist 13.2421
rhand -18.6932 -6.40758
rfingers 7.12502
rthumb 7.60129 -36.251
lclavicle 7.81162e-015 1.19271e-015
lhumerus -30.655 19.5991 78.564
lradius 11.6713
lwrist 6.05426
lhand -20.3819 14.8574
lfingers 7.12502
lthumb 5.97112 44.7533
rfemur -13.7108 10.6939 19.9244
rtibia 25.728
rfoot 1.75426 -7.43906
rtoes 7.70635
lfemur -5.98483 5.42362 -21.0511
ltibia 34.2889
lfoot -7.93586 0.645342
ltoes -12.8958
457
root -7.86911 17.2804 12.2719 -14.8276 62.2867 -7.70332
lowerback 8.70733 -1.9397 1.49666
upperback 2.43256 -2.41397 -0.304217
thorax -2.43277 -1.18826 -0.897285
lowerneck -0.476687 -1.79325 0.0457797
upperneck 6.39525 -2.51353 2.6489
head 2.11891 -1.17194 0.776469
rclavicle -4.41022e-014 1.74931e-014
rhumerus -31.2297 -8.88617 -86.8528
rradius 19.8004
rwrist 13.0417
rhand -18.8438 -6.41088
rfingers 7.12502
rthumb 7.45588 -36.2595
lclavicle -4.41022e-014 1.74931e-014
lhumerus -30.7721 19.7928 78.4648
lradius 11.608
lwrist 5.91002
lhand -20.4436 14.7966
lfingers 7.12502
lthumb 5.91151 44.6942
rfemur -13.4892 10.5578 20.3116
rtibia 25.968
rfoot 1.11734 -7.09262
rtoes 7.84123
lfemur -6.25212 5.56316 -21.0015
ltibia 33.9216
lfoot -8.17079 0.87891
ltoes -12.464
458
root -7.78322 17.2718 12.3626 -15.0314 62.3232 -8.0756
lowerback 8.63594 -1.94817 1.64708
upperback 2.4063 -2.41203 -0.237833
thorax -2.42361 -1.18815 -0.915128
lowerneck -0.484555 -1.79781 0.0391835
upperneck 6.38639 -2.51899 2.64114
head 2.11746 -1.17509 0.774968
rclavicle -8.93289e-014 -1.98785e-015
rhumerus -31.1361 -8.71726 -86.9391
rradius 19.9558
rwrist 12.85
rhand -18.9917 -6.40934
rfingers 7.12502
rthumb 7.31321 -36.263
lclavicle -8.93289e-014 -1.98785e-015
lhumerus -30.8925 20.0181 78.3435
lradius 11.5322
lwrist 5.72471
lhand -20.5071 14.7283
lfingers 7.12502
lthumb 5.85027 44.6276
rfemur -13.2864 10.4396 20.6828
rtibia 26.2078
rfoot 0.466614 -6.75244
rtoes 7.94905
lfemur -6.48313 5.7283 -20.9666
ltibia 33.4711
lfoot -8.38733 1.07919
ltoes -11.9776
459
root -7.6993 17.2635 12.4505 -15.1815 62.3343 -8.40573
lowerback 8.55316 -1.95409 1.78305
upperback 2.37579 -2.40864 -0.177072
thorax -2.41215 -1.18734 -0.931124
lowerneck -0.493945 -1.79599 0.0367477
upperneck 6.37674 -2.516 2.63237
head 2.11582 -1.17396 0.772599
rclavicle 2.53326e-014 -1.03368e-014
rhumerus -31.0475 -8.5632 -87.0196
rradius 20.1047
rwrist 12.6744
rhand -19.1362 -6.39492
rfingers 7.12502
rthumb 7.17366 -36.2533
lclavicle 2.53326e-014 -1.03368e-014
lhumerus -31.0157 20.2743 78.2005
lradius 11.4439
lwrist 5.49784
lhand -20.5635 14.6574
lfingers 7.12502
lthumb 5.79578 44.5581
rfemur -13.1077 10.3414 21.0347
rtibia 26.4465
rfoot -0.193941 -6.42254
rtoes 8.04123
lfemur -6.67543 5.91654 -20.9458
ltibia 32.9382
lfoot -8.58086 1.24514
ltoes -11.4402
460
root -7.61728 17.2555 12.5357 -15.2805 62.3224 -8.69621
lowerback 8.45865 -1.95799 1.90532
upperback 2.3412 -2.40448 -0.121722
thorax -2.39804 -1.18619 -0.945413
lowerneck -0.502826 -1.78813 0.0386156
upperneck 6.36418 -2.50494 2.62265
head 2.11292 -1.16879 0.769366
rclavicle 2.5755e-014 3.57812e-015
rhumerus -30.9666 -8.41418 -87.0995
rradius 20.252
rwrist 12.5043
rhand -19.2765 -6.38016
rfingers 7.12502
rthumb 7.03828 -36.2431
lclavicle 2.5755e-014 3.57812e-015
lhumerus -31.1417 20.5592 78.0366
lradius 11.3447
lwrist 5.23101
lhand -20.614 14.5938
lfingers 7.12502
lthumb 5.74703 44.4958
rfemur -12.9552 10.2709 21.3676
rtibia 26.6851
rfoot -0.864355 -6.11656
rtoes 8.12858
lfemur -6.82553 6.12572 -20.9361
ltibia 32.3247
lfoot -8.74766 1.37629
ltoes -10.8549
461
root -7.53707 17.248 12.6184 -15.3281 62.2893 -8.94751
lowerback 8.35046 -1.96006 2.01436
upperback 2.3027 -2.39982 -0.0718594
thorax -2.38004 -1.18481 -0.958383
lowerneck -0.511428 -1.77429 0.0453405
upperneck 6.34858 -2.48592 2.61225
head 2.10877 -1.1596 0.765256
rclavicle 5.03857e-014 1.98785e-015
rhumerus -30.8937 -8.2724 -87.1779
rradius 20.3954
rwrist 12.3439
rhand -19.4099 -6.36509
rfingers 7.12502
rthumb 6.90949 -36.2323
lclavicle 5.03857e-014 1.98785e-015
lhumerus -31.2696 20.8739 77.8513
lradius 11.2347
lwrist 4.92276
lhand -20.6642 14.515
lfingers 7.12502
lthumb 5.69858 44.4183
rfemur -12.8408 10.2284 21.6802
rtibia 26.9405
rfoot -1.54839 -5.8354
rtoes 8.21753
lfemur -6.93846 6.35274 -20.9366
ltibia 31.6459
lfoot -8.89235 1.47315
ltoes -10.2297
462
root -7.45858 17.2412 12.6984 -15.326 62.2374 -9.16135
lowerback 8.22722 -1.9606 2.11172
upperback 2.26078 -2.39497 -0.0274796
thorax -2.35696 -1.18335 -0.970913
lowerneck -0.520056 -1.75497 0.0565816
upperneck 6.32988 -2.45958 2.60091
head 2.10342 -1.14673 0.760233
rclavicle 1.56667e-014 -5.1684e-015
rhumerus -30.8286 -8.1386 -87.2545
rradius 20.5337
rwrist 12.1933
rhand -19.5322 -6.35207
rfingers 7.12502
rthumb 6.79144 -36.2232
lclavicle 1.56667e-014 -5.1684e-015
lhumerus -31.3984 21.217 77.6462
lradius 11.1145
lwrist 4.57528
lhand -20.7112 14.4334
lfingers 7.12502
lthumb 5.65323 44.338
rfemur -12.7627 10.2047 21.9719
rtibia 27.206
rfoot -2.23699 -5.57577
rtoes 8.29089
lfemur -7.01079 6.59237 -20.9462
ltibia 30.9012
lfoot -9.01147 1.54002
ltoes -9.58259
